<?xml version="1.0" standalone="no"?>
<!DOCTYPE svg PUBLIC "-//W3C//DTD SVG 20010904//EN"
 "http://www.w3.org/TR/2001/REC-SVG-20010904/DTD/svg10.dtd">
<svg version="1.0" xmlns="http://www.w3.org/2000/svg"
 width="300.000000pt" height="101.000000pt" viewBox="0 0 300.000000 101.000000"
 preserveAspectRatio="xMidYMid meet">
<metadata>
Created by potrace 1.10, written by Peter Selinger 2001-2011
</metadata>
<g transform="translate(0.000000,101.000000) scale(0.100000,-0.100000)"
fill="#000000" stroke="none">
<path d="M2 508 l3 -503 1465 0 1465 0 -1460 2 -1460 3 2 495 c2 320 -1 496
-7 500 -7 4 -9 -165 -8 -497z"/>
<path d="M295 1003 c-16 -3 -34 -9 -40 -14 -12 -12 -28 -12 -20 1 4 6 -27 10
-86 10 -51 0 -89 -3 -85 -7 3 -4 25 -6 47 -5 25 2 45 -3 55 -13 9 -8 21 -12
27 -8 7 4 4 9 -9 14 -15 6 -14 7 8 6 15 -1 25 -4 23 -8 -3 -3 7 -11 21 -18 15
-6 23 -7 19 -1 -3 5 1 10 9 10 9 0 16 -4 16 -10 0 -5 5 -10 12 -10 6 0 3 9 -7
20 -18 20 -17 20 13 20 18 0 32 5 32 10 0 6 -1 9 -2 9 -2 -1 -16 -4 -33 -6z"/>
<path d="M340 1000 c0 -5 5 -10 11 -10 5 0 7 5 4 10 -3 6 -8 10 -11 10 -2 0
-4 -4 -4 -10z"/>
<path d="M423 998 c-14 -5 -15 -7 -3 -9 30 -3 103 2 116 9 16 9 -90 10 -113 0z"/>
<path d="M638 998 c6 -6 18 -8 28 -6 14 3 12 5 -9 10 -19 3 -25 2 -19 -4z"/>
<path d="M837 1004 c-3 -3 -31 -6 -61 -5 -31 0 -56 -4 -56 -8 0 -5 -17 -13
-37 -19 -33 -8 -27 -10 45 -9 46 1 86 5 89 11 4 5 0 6 -8 1 -8 -5 -11 -4 -6 1
5 5 23 14 40 21 18 6 25 12 16 12 -9 1 -18 -2 -22 -5z m-57 -23 c0 -5 -13 -9
-30 -9 -16 1 -27 5 -24 10 7 11 54 10 54 -1z"/>
<path d="M886 998 c3 -5 21 -8 40 -8 19 0 34 3 34 8 0 4 -18 7 -39 7 -22 0
-37 -3 -35 -7z"/>
<path d="M1000 1000 c-13 -8 -12 -10 3 -10 9 0 17 5 17 10 0 12 -1 12 -20 0z"/>
<path d="M1037 994 c3 -9 9 -12 12 -7 3 4 10 11 15 16 5 4 0 7 -12 7 -15 0
-20 -4 -15 -16z"/>
<path d="M1143 997 c2 -6 9 -12 15 -11 7 1 26 2 43 3 44 2 27 17 -21 19 -29 1
-40 -2 -37 -11z"/>
<path d="M1246 1002 c-3 -5 1 -9 9 -9 8 0 12 4 9 9 -3 4 -7 8 -9 8 -2 0 -6 -4
-9 -8z"/>
<path d="M1370 1000 c-22 -6 -23 -7 -5 -11 11 -3 34 -2 50 1 29 6 29 6 5 11
-14 3 -36 2 -50 -1z"/>
<path d="M1680 1000 l-75 -6 95 -4 c112 -6 203 3 110 11 -30 2 -89 2 -130 -1z"/>
<path d="M2995 505 c0 -280 1 -397 2 -258 2 138 2 368 0 510 -1 142 -2 29 -2
-252z"/>
<path d="M378 993 c7 -3 16 -2 19 1 4 3 -2 6 -13 5 -11 0 -14 -3 -6 -6z"/>
<path d="M568 993 c7 -3 16 -2 19 1 4 3 -2 6 -13 5 -11 0 -14 -3 -6 -6z"/>
<path d="M1475 990 l30 -8 -35 -2 c-29 -2 -31 -4 -10 -7 14 -3 31 -10 39 -16
10 -8 13 -8 8 -1 -4 8 10 10 46 6 29 -2 49 -1 45 3 -5 5 -23 8 -42 7 -22 -1
-36 4 -40 13 -3 9 -18 15 -38 14 l-33 -1 30 -8z"/>
<path d="M1563 993 c9 -2 23 -2 30 0 6 3 -1 5 -18 5 -16 0 -22 -2 -12 -5z"/>
<path d="M1947 993 c18 -2 50 -2 70 0 21 2 7 4 -32 4 -38 0 -55 -2 -38 -4z"/>
<path d="M2118 993 c12 -2 30 -2 40 0 9 3 -1 5 -23 4 -22 0 -30 -2 -17 -4z"/>
<path d="M45 970 c3 -5 8 -10 11 -10 2 0 4 5 4 10 0 6 -5 10 -11 10 -5 0 -7
-4 -4 -10z"/>
<path d="M360 969 c0 -15 18 -19 23 -6 3 8 -1 14 -9 14 -8 0 -14 -4 -14 -8z"/>
<path d="M405 970 c3 -5 8 -10 11 -10 2 0 4 5 4 10 0 6 -5 10 -11 10 -5 0 -7
-4 -4 -10z"/>
<path d="M510 964 c-29 -16 -20 -17 35 -4 26 6 44 5 52 -2 10 -8 13 -6 13 6 0
20 -63 21 -100 0z"/>
<path d="M920 971 c-33 -9 -11 -17 58 -20 35 -2 52 1 52 9 0 7 -7 10 -15 7 -8
-4 -17 -2 -20 3 -4 6 -11 10 -16 10 -6 0 -7 -4 -4 -10 3 -5 -1 -10 -10 -10 -9
0 -13 5 -10 10 7 11 2 11 -35 1z"/>
<path d="M1070 965 c0 -8 9 -15 20 -15 11 0 20 5 20 11 0 6 -7 8 -16 5 -8 -3
-12 -2 -9 4 3 6 1 10 -4 10 -6 0 -11 -7 -11 -15z"/>
<path d="M1680 965 c-14 -16 -3 -20 19 -6 8 5 9 11 3 15 -5 3 -15 -1 -22 -9z"/>
<path d="M1758 973 c7 -3 16 -2 19 1 4 3 -2 6 -13 5 -11 0 -14 -3 -6 -6z"/>
<path d="M1827 970 c4 -4 28 -10 52 -13 26 -3 39 -2 31 3 -10 6 -7 9 11 12 13
2 -5 4 -39 5 -35 0 -60 -3 -55 -7z"/>
<path d="M1978 968 c5 -5 16 -8 23 -6 8 3 3 7 -10 11 -17 4 -21 3 -13 -5z"/>
<path d="M2020 970 c0 -5 9 -12 21 -15 24 -8 94 3 84 13 -10 10 -105 12 -105
2z"/>
<path d="M2150 969 c0 -5 5 -7 10 -4 6 3 10 8 10 11 0 2 -4 4 -10 4 -5 0 -10
-5 -10 -11z"/>
<path d="M2228 935 c-3 -22 -4 -232 -4 -467 l1 -428 -1100 -1 c-605 -1 -1084
-5 -1065 -8 59 -12 2121 -11 2158 1 l32 10 1 71 c1 40 1 76 0 80 -1 5 -2 169
-2 366 0 336 -8 480 -21 376z"/>
<path d="M1188 953 c12 -2 30 -2 40 0 9 3 -1 5 -23 4 -22 0 -30 -2 -17 -4z"/>
<path d="M1368 953 c12 -2 32 -2 45 0 12 2 2 4 -23 4 -25 0 -35 -2 -22 -4z"/>
<path d="M1438 878 c-46 -40 -48 -53 -48 -308 0 -159 -4 -248 -11 -262 -6 -12
-18 -51 -25 -87 -18 -84 -9 -94 78 -97 64 -2 98 13 98 43 0 10 34 13 170 13
162 0 170 -1 170 -19 0 -28 15 -34 84 -36 65 -3 96 12 96 46 0 14 7 16 40 12
l40 -6 0 145 c0 128 -2 147 -18 161 -40 36 -47 23 -45 -75 l2 -93 -20 45 c-11
25 -38 66 -60 92 -21 26 -39 51 -39 57 0 6 -9 11 -19 11 -10 0 -39 11 -62 25
-24 14 -52 25 -61 25 -10 0 -18 5 -18 10 0 6 7 10 15 10 23 0 74 28 121 65 51
42 105 140 107 198 l2 42 -285 3 c-283 2 -285 2 -312 -20z m481 -33 c11 -19
32 -40 46 -47 14 -6 25 -17 25 -23 0 -21 -70 -104 -100 -120 -57 -29 -134 -9
-182 48 -30 35 -40 18 -12 -21 21 -30 51 -45 104 -52 l45 -6 -30 -14 c-44 -19
-162 -24 -210 -8 l-40 13 -25 109 c-14 60 -31 111 -37 113 -7 3 -24 -20 -39
-49 -33 -65 -33 -66 -44 -48 -20 31 -11 81 19 111 l29 29 215 0 215 0 21 -35z
m91 -5 c0 -29 -15 -32 -44 -9 -30 24 -33 36 -8 42 25 5 52 -11 52 -33z m-494
-128 c5 -31 8 -63 7 -69 0 -7 4 -13 9 -13 6 0 7 -7 4 -16 -3 -8 -2 -12 4 -9 6
3 10 1 10 -4 0 -18 -28 -13 -39 7 -6 9 -11 14 -11 9 0 -18 -48 27 -53 50 -5
28 10 73 25 73 5 0 6 5 3 10 -3 6 -1 10 5 10 6 0 8 4 5 10 -3 5 0 7 8 4 9 -3
18 -28 23 -62z m-93 -22 c-10 -39 7 -70 55 -100 52 -33 77 -37 89 -15 7 12 16
13 43 5 19 -6 55 -10 80 -10 51 0 101 -12 168 -42 46 -20 46 -20 22 -30 -18
-7 -49 -4 -107 8 -78 16 -86 16 -154 0 -67 -17 -74 -17 -115 -1 -24 9 -48 14
-54 10 -5 -3 -10 -30 -10 -59 0 -30 -6 -60 -15 -72 -13 -17 -14 0 -15 159 0
104 4 176 9 173 5 -3 7 -15 4 -26z m259 -240 c4 -65 22 -65 26 0 2 41 6 51 19
48 12 -2 17 -14 17 -43 1 -29 5 -40 16 -40 11 0 14 9 12 38 -2 20 -1 37 3 37
3 0 30 -11 60 -25 64 -31 128 -97 160 -168 24 -51 25 -71 3 -49 -25 25 -89 8
-116 -30 -12 -16 -29 -18 -183 -18 l-170 0 -23 27 c-18 21 -32 27 -62 27 -22
0 -47 -3 -56 -8 -16 -7 -16 -3 4 43 30 73 88 134 161 171 l62 31 5 -36 c6 -42
24 -47 28 -8 7 71 30 72 34 3z m-172 14 c0 -3 -4 -2 -10 1 -5 3 -10 0 -10 -7
0 -9 -3 -9 -10 2 -15 24 -12 32 10 20 11 -6 20 -13 20 -16z m418 2 c3 -15 -1
-17 -20 -11 -32 10 -35 15 -18 25 20 13 34 7 38 -14z m180 -129 c2 -112 0
-137 -11 -137 -12 0 -14 26 -13 140 1 185 20 182 24 -3z m-83 19 c39 -83 55
-156 32 -156 -9 0 -18 20 -26 55 -7 30 -28 78 -47 106 -19 28 -34 63 -34 77 0
25 0 25 20 7 12 -11 36 -51 55 -89z m-540 -141 c28 -27 32 -48 13 -62 -14 -11
-64 -10 -75 0 -3 4 -12 2 -20 -4 -10 -9 -17 -8 -28 1 -31 26 13 90 62 90 13 0
35 -11 48 -25z m519 4 c24 -19 37 -68 19 -70 -128 -10 -154 1 -127 52 22 44
66 51 108 18z"/>
<path d="M1663 292 c21 -23 21 -32 2 -32 -7 0 -18 8 -24 17 -5 10 -13 14 -17
10 -5 -4 -3 -16 2 -25 13 -20 101 -27 122 -10 14 12 16 38 2 38 -5 0 -10 -7
-10 -15 0 -8 -9 -15 -20 -15 -23 0 -27 18 -5 26 29 11 15 24 -27 24 -39 0 -40
-1 -25 -18z"/>
<path d="M156 703 c-15 -93 -30 -178 -33 -190 -4 -20 -1 -23 26 -23 29 0 31 3
31 35 0 34 1 35 40 35 33 0 40 -3 40 -19 0 -37 12 -51 42 -51 26 0 29 3 25 23
-6 20 -20 109 -48 285 l-11 72 -42 0 -43 0 -27 -167z m95 104 c8 -31 2 -35
-16 -10 -10 14 -11 7 -5 -38 5 -29 11 -75 15 -101 l6 -48 -31 0 c-30 0 -31 1
-23 38 4 20 8 69 8 109 0 39 3 69 7 67 5 -3 8 0 8 6 0 22 24 4 31 -23z m44
-257 c4 -8 -1 -6 -12 5 -11 11 -19 27 -17 35 1 8 3 22 4 30 1 8 5 -1 9 -20 4
-20 11 -42 16 -50z m-116 46 c9 -10 8 -16 -4 -26 -13 -11 -15 -8 -15 14 0 30
3 32 19 12z"/>
<path d="M341 744 c28 -90 39 -143 39 -190 l0 -64 30 0 30 0 0 65 c0 46 10
100 35 181 19 63 35 120 35 125 0 6 -12 9 -27 7 -25 -3 -29 -9 -45 -73 -19
-82 -22 -119 -8 -110 7 4 7 -3 0 -20 -6 -15 -10 -46 -10 -71 0 -24 -4 -44 -8
-44 -5 0 -7 14 -6 30 1 17 -4 53 -11 81 -12 45 -12 49 2 37 14 -11 15 -10 10
7 -3 11 -13 53 -22 93 -17 71 -18 72 -50 72 l-32 0 38 -126z"/>
<path d="M532 700 c3 -160 4 -171 26 -192 33 -34 97 -31 128 5 23 27 24 34 24
193 l0 164 -30 0 -30 0 0 -166 0 -165 -27 3 -28 3 -3 163 -2 162 -31 0 -30 0
3 -170z m25 -62 c-3 -7 -5 -2 -5 12 0 14 2 19 5 13 2 -7 2 -19 0 -25z m0 -70
c-3 -7 -5 -2 -5 12 0 14 2 19 5 13 2 -7 2 -19 0 -25z m113 -38 c0 -5 -5 -10
-11 -10 -5 0 -7 5 -4 10 3 6 8 10 11 10 2 0 4 -4 4 -10z"/>
<path d="M740 680 l0 -190 69 0 c53 0 74 4 92 19 22 18 24 27 28 142 5 192
-11 219 -129 219 l-59 0 -1 -190z m60 150 c0 -5 -4 -10 -10 -10 -5 0 -10 -8
-11 -17 0 -11 -2 -13 -6 -5 -3 7 -2 19 1 27 6 17 26 20 26 5z m68 -144 c3
-125 -3 -146 -42 -146 -20 0 -21 3 -19 137 1 76 2 139 3 140 0 1 12 -2 28 -6
l27 -7 3 -118z m-85 -141 c4 -8 3 -16 -1 -19 -4 -3 -9 4 -9 15 -2 23 3 25 10
4z"/>
<path d="M982 847 c-21 -22 -22 -33 -22 -168 0 -100 4 -150 13 -162 17 -24 66
-35 105 -25 48 13 62 53 62 180 0 165 -17 198 -98 198 -27 0 -45 -7 -60 -23z
m86 -39 c13 -13 18 -222 6 -252 -6 -16 -54 -23 -54 -8 -4 95 -1 253 4 261 9
14 29 14 44 -1z m-64 -264 c3 -8 2 -12 -4 -9 -6 3 -10 10 -10 16 0 14 7 11 14
-7z"/>
<path d="M1190 850 c-11 -11 -20 -28 -21 -37 -5 -165 0 -275 14 -297 29 -44
124 -38 145 9 7 14 12 59 12 100 l0 75 -40 0 c-38 0 -40 -2 -40 -30 0 -22 4
-28 15 -24 12 5 15 -2 15 -34 0 -56 -8 -72 -36 -72 -31 0 -35 20 -32 154 3 92
6 111 21 120 15 9 21 7 33 -9 8 -11 12 -30 9 -42 -5 -20 -2 -23 25 -23 28 0
30 2 30 39 0 59 -30 91 -86 91 -31 0 -50 -6 -64 -20z m7 -137 c-3 -10 -5 -4
-5 12 0 17 2 24 5 18 2 -7 2 -21 0 -30z"/>
<path d="M147 442 c-27 -3 -28 -5 -25 -59 l3 -56 50 -2 c28 -1 56 2 63 7 18
15 15 36 -8 43 -27 9 -25 25 3 22 17 -1 23 -10 27 -36 8 -56 25 -47 23 11 -2
69 -1 68 -13 68 -5 0 -10 -7 -10 -16 0 -12 -7 -14 -30 -9 -41 9 -53 -20 -20
-47 12 -10 20 -21 17 -25 -4 -3 -13 0 -22 7 -10 8 -15 9 -15 1 0 -6 -11 -11
-25 -11 -18 0 -25 5 -25 20 0 13 7 20 20 20 11 0 20 5 20 10 0 6 -9 10 -20 10
-12 0 -20 7 -20 16 0 11 6 15 20 11 11 -3 22 -1 25 3 8 12 -6 16 -38 12z"/>
<path d="M410 440 c0 -5 5 -10 10 -10 6 0 10 5 10 10 0 6 -4 10 -10 10 -5 0
-10 -4 -10 -10z"/>
<path d="M475 440 c-3 -5 1 -10 10 -10 9 0 13 5 10 10 -3 6 -8 10 -10 10 -2 0
-7 -4 -10 -10z"/>
<path d="M1185 440 c-3 -5 -3 -10 2 -10 4 0 0 -5 -10 -11 -9 -5 -22 -7 -27 -4
-6 4 -10 -10 -10 -34 0 -23 -4 -41 -10 -41 -5 0 -10 18 -10 41 0 36 -2 40 -22
37 -12 -2 -23 -9 -26 -17 -3 -9 2 -11 17 -6 11 3 21 2 21 -3 0 -5 -9 -12 -21
-15 -15 -4 -20 -12 -17 -28 3 -20 9 -24 46 -25 l42 -1 0 38 c0 29 4 39 15 39
12 0 15 -9 13 -35 -2 -19 1 -34 5 -35 5 0 10 25 10 56 2 54 -5 75 -18 54z
m-75 -85 c0 -8 -7 -15 -15 -15 -16 0 -20 12 -8 23 11 12 23 8 23 -8z"/>
<path d="M446 384 c3 -77 14 -81 14 -6 0 34 -4 62 -8 62 -5 0 -8 -25 -6 -56z"/>
<path d="M307 413 c-4 -3 -7 -24 -7 -45 0 -45 22 -60 48 -34 16 16 15 16 -7
14 -13 -2 -26 3 -28 10 -3 7 5 12 21 12 29 0 30 3 16 31 -11 19 -31 25 -43 12z
m33 -23 c0 -5 -7 -10 -15 -10 -8 0 -15 5 -15 10 0 6 7 10 15 10 8 0 15 -4 15
-10z"/>
<path d="M370 368 c0 -30 4 -47 10 -43 6 3 10 22 10 41 0 19 5 34 10 34 6 0
10 -15 10 -34 0 -19 5 -38 10 -41 6 -4 10 12 10 39 0 25 -3 47 -7 47 -52 9
-53 8 -53 -43z"/>
<path d="M498 413 c-14 -3 -18 -15 -18 -46 0 -41 1 -42 33 -42 17 0 37 4 43 7
6 4 14 4 18 0 4 -3 25 -7 47 -8 38 -1 39 0 39 32 0 21 6 37 18 43 19 11 18 12
-15 16 -20 2 -23 -2 -23 -36 0 -22 -5 -39 -11 -39 -7 0 -10 12 -7 30 5 34 -13
56 -37 46 -24 -9 -17 -25 8 -18 19 4 17 1 -12 -26 -46 -44 -70 -41 -36 4 29
38 11 52 -47 37z m24 -43 c-22 -38 -33 -38 -30 0 2 24 7 30 25 30 22 0 22 -1
5 -30z m88 -9 c0 -12 -20 -25 -27 -18 -7 7 6 27 18 27 5 0 9 -4 9 -9z"/>
<path d="M726 412 c-13 -21 -13 -62 -1 -79 12 -15 17 -16 34 -5 17 10 25 10
42 0 17 -11 22 -10 35 7 14 18 13 22 -13 43 -27 22 -27 23 -4 17 17 -5 22 -4
19 6 -3 8 -13 14 -24 14 -28 0 -31 -41 -5 -50 37 -11 22 -23 -26 -20 -49 2
-75 25 -29 25 28 0 34 18 14 38 -14 14 -35 16 -42 4z m34 -22 c0 -5 -7 -10
-16 -10 -8 0 -12 5 -9 10 3 6 10 10 16 10 5 0 9 -4 9 -10z"/>
<path d="M890 405 c-12 -14 -10 -16 16 -10 28 6 28 6 10 -9 -11 -9 -24 -16
-29 -16 -4 0 -7 -10 -5 -22 3 -20 9 -23 47 -23 44 1 45 1 45 34 1 19 7 36 14
39 10 3 13 -6 10 -34 -1 -22 2 -39 7 -39 6 0 11 17 13 38 4 51 22 47 22 -5 0
-30 3 -39 11 -31 6 6 9 28 7 49 l-3 39 -47 1 -48 0 0 -38 c0 -49 -18 -50 -22
-1 -3 42 -26 55 -48 28z m40 -44 c0 -12 -20 -25 -27 -18 -7 7 6 27 18 27 5 0
9 -4 9 -9z"/>
<path d="M1224 406 c-11 -28 1 -81 18 -84 26 -5 45 41 30 73 -13 27 -39 33
-48 11z m36 -36 c0 -20 -5 -30 -15 -30 -10 0 -15 10 -15 30 0 20 5 30 15 30
10 0 15 -10 15 -30z"/>
<path d="M1286 405 c-3 -9 3 -23 14 -32 26 -22 26 -36 0 -28 -15 5 -18 3 -14
-10 10 -24 48 -15 52 13 3 17 -2 25 -17 29 -12 3 -21 10 -21 15 0 5 10 6 21 3
15 -5 20 -3 17 6 -7 20 -44 23 -52 4z"/>
<path d="M127 293 c-15 -15 -5 -44 18 -55 27 -12 31 -23 14 -33 -6 -4 -17 1
-25 11 -14 18 -15 18 -12 -1 4 -27 53 -33 62 -8 5 12 0 24 -18 38 -26 21 -35
45 -17 45 6 0 13 -4 16 -10 10 -16 25 -12 19 5 -6 15 -45 21 -57 8z"/>
<path d="M199 285 c-8 -41 3 -95 19 -95 12 0 13 3 5 11 -7 7 -8 21 -3 39 6 19
4 34 -5 46 -12 17 -13 17 -16 -1z"/>
<path d="M345 290 c3 -5 8 -10 11 -10 2 0 4 5 4 10 0 6 -5 10 -11 10 -5 0 -7
-4 -4 -10z"/>
<path d="M374 245 c1 -30 4 -55 9 -55 4 0 7 25 7 55 0 30 -4 55 -8 55 -4 0 -8
-25 -8 -55z"/>
<path d="M405 290 c4 -6 11 -8 16 -5 14 9 11 15 -7 15 -8 0 -12 -5 -9 -10z"/>
<path d="M590 290 c0 -5 5 -10 10 -10 6 0 10 5 10 10 0 6 -4 10 -10 10 -5 0
-10 -4 -10 -10z"/>
<path d="M710 245 c0 -71 17 -71 22 0 2 39 -1 55 -9 55 -9 0 -13 -18 -13 -55z"/>
<path d="M870 290 c0 -5 5 -10 10 -10 6 0 10 5 10 10 0 6 -4 10 -10 10 -5 0
-10 -4 -10 -10z"/>
<path d="M1068 283 c-2 -10 -1 -34 0 -55 4 -34 7 -38 33 -38 26 0 29 3 27 31
-2 19 2 34 10 36 8 3 12 -7 12 -31 0 -20 4 -36 8 -36 10 0 8 62 -2 78 -4 6
-13 9 -21 5 -11 -4 -13 -1 -9 11 3 9 1 16 -5 16 -6 0 -11 -7 -11 -15 0 -8 -4
-15 -10 -15 -5 0 -10 7 -10 15 0 21 -18 19 -22 -2z m42 -53 c0 -16 -4 -30 -10
-30 -5 0 -10 14 -10 30 0 17 5 30 10 30 6 0 10 -13 10 -30z"/>
<path d="M240 259 c-17 -32 -4 -71 22 -67 12 2 23 10 26 18 4 12 2 13 -9 3
-18 -17 -29 -16 -29 2 0 8 9 15 20 15 22 0 26 20 8 38 -17 17 -26 15 -38 -9z
m30 -9 c0 -5 -4 -10 -10 -10 -5 0 -10 5 -10 10 0 6 5 10 10 10 6 0 10 -4 10
-10z"/>
<path d="M300 233 c0 -24 5 -43 10 -43 6 0 10 16 10 35 0 19 5 35 10 35 6 0
10 -16 10 -35 0 -19 5 -35 10 -35 11 0 14 80 3 81 -56 6 -53 8 -53 -38z"/>
<path d="M430 270 c0 -6 7 -10 15 -10 19 0 19 -9 0 -34 -24 -31 -19 -35 40
-35 51 1 76 12 60 27 -3 3 -10 0 -14 -7 -5 -7 -14 -10 -20 -7 -16 10 -4 26 20
26 23 0 25 22 4 40 -21 17 -45 -4 -45 -39 0 -20 -5 -27 -20 -28 -24 -2 -25 5
-5 31 22 28 18 41 -10 44 -14 1 -25 -3 -25 -8z m100 -20 c0 -5 -4 -10 -10 -10
-5 0 -10 5 -10 10 0 6 5 10 10 10 6 0 10 -4 10 -10z"/>
<path d="M623 263 c-4 -10 2 -22 15 -33 12 -10 18 -20 15 -24 -3 -3 -12 -1
-20 5 -10 9 -13 8 -13 -4 0 -22 27 -28 46 -10 15 16 14 19 -12 40 l-29 24 30
-7 c27 -7 29 -6 16 9 -17 22 -40 22 -48 0z"/>
<path d="M752 268 c-26 -26 -8 -83 24 -76 23 4 31 52 13 74 -14 17 -21 18 -37
2z m28 -38 c0 -16 -4 -30 -10 -30 -5 0 -10 14 -10 30 0 17 5 30 10 30 6 0 10
-13 10 -30z"/>
<path d="M809 275 c-10 -10 15 -85 28 -85 7 0 13 6 13 14 0 7 3 28 7 46 4 24
3 31 -5 26 -7 -4 -12 -19 -13 -34 0 -26 -1 -26 -13 6 -6 18 -14 31 -17 27z"/>
<path d="M918 273 c-13 -3 -18 -15 -18 -44 0 -21 5 -39 10 -39 6 0 10 16 10
35 0 19 5 35 10 35 6 0 10 -16 10 -35 0 -19 5 -35 10 -35 6 0 10 13 10 29 0
33 -9 62 -19 60 -3 -1 -14 -3 -23 -6z"/>
<path d="M974 265 c-11 -28 1 -70 19 -69 9 1 17 -2 17 -7 0 -5 -10 -9 -22 -9
-16 0 -19 -3 -11 -11 6 -6 20 -8 32 -4 18 5 21 14 21 58 0 49 -2 52 -26 53
-14 1 -28 -4 -30 -11z m36 -30 c0 -16 -6 -25 -15 -25 -15 0 -21 31 -8 43 13
14 23 6 23 -18z"/>
<path d="M1187 274 c-4 -4 -7 -25 -7 -46 0 -34 3 -38 25 -38 16 0 25 6 25 16
0 13 -3 14 -13 5 -8 -6 -17 -8 -20 -4 -13 12 -7 23 14 23 15 0 20 5 17 22 -3
23 -27 35 -41 22z m33 -24 c0 -5 -7 -10 -15 -10 -8 0 -15 5 -15 10 0 6 7 10
15 10 8 0 15 -4 15 -10z"/>
<path d="M1260 271 c-16 -6 -24 -81 -9 -81 5 0 9 16 9 35 0 19 5 35 10 35 6 0
10 -16 10 -35 0 -19 5 -35 10 -35 6 0 10 16 10 35 0 19 5 35 10 35 6 0 10 -16
10 -35 0 -19 5 -35 11 -35 6 0 9 17 7 42 -3 39 -5 43 -33 44 -16 1 -37 -2 -45
-5z"/>
<path d="M409 235 c-6 -40 -4 -53 7 -43 3 3 4 23 2 44 l-3 39 -6 -40z"/>
<path d="M590 230 c0 -22 5 -40 10 -40 6 0 10 18 10 40 0 22 -4 40 -10 40 -5
0 -10 -18 -10 -40z"/>
<path d="M870 230 c0 -22 5 -40 10 -40 6 0 10 18 10 40 0 22 -4 40 -10 40 -5
0 -10 -18 -10 -40z"/>
<path d="M2760 205 c-14 -8 -20 -14 -14 -15 5 0 19 7 30 15 24 18 16 19 -16 0z"/>
<path d="M2880 197 c14 -13 27 -23 29 -21 6 5 -10 24 -32 35 -20 10 -20 9 3
-14z"/>
<path d="M2270 181 c0 -5 7 -12 16 -15 14 -5 15 -4 4 9 -14 17 -20 19 -20 6z"/>
<path d="M2590 140 c0 -5 5 -10 11 -10 5 0 7 5 4 10 -3 6 -8 10 -11 10 -2 0
-4 -4 -4 -10z"/>
<path d="M2679 123 c-13 -16 -12 -17 4 -4 16 13 21 21 13 21 -2 0 -10 -8 -17
-17z"/>
<path d="M2432 70 c7 -11 17 -20 22 -20 5 0 1 9 -9 20 -10 11 -20 20 -22 20
-2 0 2 -9 9 -20z"/>
<path d="M2662 70 c0 -14 2 -19 5 -12 2 6 2 18 0 25 -3 6 -5 1 -5 -13z"/>
<path d="M2880 50 c0 -5 5 -10 11 -10 5 0 7 5 4 10 -3 6 -8 10 -11 10 -2 0 -4
-4 -4 -10z"/>
</g>
</svg>
